<mxfile host="Electron" agent="Mozilla/5.0 (Macintosh; Intel Mac OS X 10_15_7) AppleWebKit/537.36 (KHTML, like Gecko) draw.io/24.7.5 Chrome/126.0.6478.183 Electron/31.3.0 Safari/537.36" version="24.7.5">
  <diagram name="Strona-1" id="0c0vmbEl8zV9RdNKLGCS">
    <mxGraphModel dx="2069" dy="907" grid="1" gridSize="10" guides="1" tooltips="1" connect="1" arrows="1" fold="1" page="1" pageScale="1" pageWidth="827" pageHeight="1169" math="0" shadow="0">
      <root>
        <mxCell id="0" />
        <mxCell id="1" parent="0" />
        <mxCell id="LgKx24s-j5DssiRB8k6_-2" value="user" style="swimlane;fontStyle=0;childLayout=stackLayout;horizontal=1;startSize=26;horizontalStack=0;resizeParent=1;resizeParentMax=0;resizeLast=0;collapsible=1;marginBottom=0;align=center;fontSize=14;" vertex="1" parent="1">
          <mxGeometry x="-20" y="210" width="160" height="146" as="geometry" />
        </mxCell>
        <mxCell id="LgKx24s-j5DssiRB8k6_-3" value="id" style="text;strokeColor=none;fillColor=none;spacingLeft=4;spacingRight=4;overflow=hidden;rotatable=0;points=[[0,0.5],[1,0.5]];portConstraint=eastwest;fontSize=12;whiteSpace=wrap;html=1;" vertex="1" parent="LgKx24s-j5DssiRB8k6_-2">
          <mxGeometry y="26" width="160" height="30" as="geometry" />
        </mxCell>
        <mxCell id="LgKx24s-j5DssiRB8k6_-4" value="email" style="text;strokeColor=none;fillColor=none;spacingLeft=4;spacingRight=4;overflow=hidden;rotatable=0;points=[[0,0.5],[1,0.5]];portConstraint=eastwest;fontSize=12;whiteSpace=wrap;html=1;" vertex="1" parent="LgKx24s-j5DssiRB8k6_-2">
          <mxGeometry y="56" width="160" height="30" as="geometry" />
        </mxCell>
        <mxCell id="LgKx24s-j5DssiRB8k6_-5" value="password" style="text;strokeColor=none;fillColor=none;spacingLeft=4;spacingRight=4;overflow=hidden;rotatable=0;points=[[0,0.5],[1,0.5]];portConstraint=eastwest;fontSize=12;whiteSpace=wrap;html=1;" vertex="1" parent="LgKx24s-j5DssiRB8k6_-2">
          <mxGeometry y="86" width="160" height="30" as="geometry" />
        </mxCell>
        <mxCell id="LgKx24s-j5DssiRB8k6_-6" value="role STRING" style="text;strokeColor=none;fillColor=none;spacingLeft=4;spacingRight=4;overflow=hidden;rotatable=0;points=[[0,0.5],[1,0.5]];portConstraint=eastwest;fontSize=12;whiteSpace=wrap;html=1;" vertex="1" parent="LgKx24s-j5DssiRB8k6_-2">
          <mxGeometry y="116" width="160" height="30" as="geometry" />
        </mxCell>
        <mxCell id="LgKx24s-j5DssiRB8k6_-7" value="basket" style="swimlane;fontStyle=0;childLayout=stackLayout;horizontal=1;startSize=26;horizontalStack=0;resizeParent=1;resizeParentMax=0;resizeLast=0;collapsible=1;marginBottom=0;align=center;fontSize=14;" vertex="1" parent="1">
          <mxGeometry x="254" y="220" width="160" height="86" as="geometry" />
        </mxCell>
        <mxCell id="LgKx24s-j5DssiRB8k6_-8" value="id" style="text;strokeColor=none;fillColor=none;spacingLeft=4;spacingRight=4;overflow=hidden;rotatable=0;points=[[0,0.5],[1,0.5]];portConstraint=eastwest;fontSize=12;whiteSpace=wrap;html=1;" vertex="1" parent="LgKx24s-j5DssiRB8k6_-7">
          <mxGeometry y="26" width="160" height="30" as="geometry" />
        </mxCell>
        <mxCell id="LgKx24s-j5DssiRB8k6_-9" value="user_id" style="text;strokeColor=none;fillColor=none;spacingLeft=4;spacingRight=4;overflow=hidden;rotatable=0;points=[[0,0.5],[1,0.5]];portConstraint=eastwest;fontSize=12;whiteSpace=wrap;html=1;" vertex="1" parent="LgKx24s-j5DssiRB8k6_-7">
          <mxGeometry y="56" width="160" height="30" as="geometry" />
        </mxCell>
        <mxCell id="LgKx24s-j5DssiRB8k6_-12" value="" style="edgeStyle=entityRelationEdgeStyle;fontSize=12;html=1;endArrow=ERmandOne;startArrow=ERmandOne;rounded=0;entryX=0;entryY=0.5;entryDx=0;entryDy=0;exitX=1;exitY=0.5;exitDx=0;exitDy=0;" edge="1" parent="1" source="LgKx24s-j5DssiRB8k6_-3" target="LgKx24s-j5DssiRB8k6_-9">
          <mxGeometry width="100" height="100" relative="1" as="geometry">
            <mxPoint x="210" y="610" as="sourcePoint" />
            <mxPoint x="310" y="510" as="targetPoint" />
          </mxGeometry>
        </mxCell>
        <mxCell id="LgKx24s-j5DssiRB8k6_-13" value="device" style="swimlane;fontStyle=0;childLayout=stackLayout;horizontal=1;startSize=26;horizontalStack=0;resizeParent=1;resizeParentMax=0;resizeLast=0;collapsible=1;marginBottom=0;align=center;fontSize=14;" vertex="1" parent="1">
          <mxGeometry x="780" y="210" width="160" height="236" as="geometry" />
        </mxCell>
        <mxCell id="LgKx24s-j5DssiRB8k6_-14" value="id" style="text;strokeColor=none;fillColor=none;spacingLeft=4;spacingRight=4;overflow=hidden;rotatable=0;points=[[0,0.5],[1,0.5]];portConstraint=eastwest;fontSize=12;whiteSpace=wrap;html=1;" vertex="1" parent="LgKx24s-j5DssiRB8k6_-13">
          <mxGeometry y="26" width="160" height="30" as="geometry" />
        </mxCell>
        <mxCell id="LgKx24s-j5DssiRB8k6_-15" value="name" style="text;strokeColor=none;fillColor=none;spacingLeft=4;spacingRight=4;overflow=hidden;rotatable=0;points=[[0,0.5],[1,0.5]];portConstraint=eastwest;fontSize=12;whiteSpace=wrap;html=1;" vertex="1" parent="LgKx24s-j5DssiRB8k6_-13">
          <mxGeometry y="56" width="160" height="30" as="geometry" />
        </mxCell>
        <mxCell id="LgKx24s-j5DssiRB8k6_-16" value="price" style="text;strokeColor=none;fillColor=none;spacingLeft=4;spacingRight=4;overflow=hidden;rotatable=0;points=[[0,0.5],[1,0.5]];portConstraint=eastwest;fontSize=12;whiteSpace=wrap;html=1;" vertex="1" parent="LgKx24s-j5DssiRB8k6_-13">
          <mxGeometry y="86" width="160" height="30" as="geometry" />
        </mxCell>
        <mxCell id="LgKx24s-j5DssiRB8k6_-17" value="rating" style="text;strokeColor=none;fillColor=none;spacingLeft=4;spacingRight=4;overflow=hidden;rotatable=0;points=[[0,0.5],[1,0.5]];portConstraint=eastwest;fontSize=12;whiteSpace=wrap;html=1;" vertex="1" parent="LgKx24s-j5DssiRB8k6_-13">
          <mxGeometry y="116" width="160" height="30" as="geometry" />
        </mxCell>
        <mxCell id="LgKx24s-j5DssiRB8k6_-18" value="img" style="text;strokeColor=none;fillColor=none;spacingLeft=4;spacingRight=4;overflow=hidden;rotatable=0;points=[[0,0.5],[1,0.5]];portConstraint=eastwest;fontSize=12;whiteSpace=wrap;html=1;" vertex="1" parent="LgKx24s-j5DssiRB8k6_-13">
          <mxGeometry y="146" width="160" height="30" as="geometry" />
        </mxCell>
        <mxCell id="LgKx24s-j5DssiRB8k6_-19" value="typeId" style="text;strokeColor=none;fillColor=none;spacingLeft=4;spacingRight=4;overflow=hidden;rotatable=0;points=[[0,0.5],[1,0.5]];portConstraint=eastwest;fontSize=12;whiteSpace=wrap;html=1;" vertex="1" parent="LgKx24s-j5DssiRB8k6_-13">
          <mxGeometry y="176" width="160" height="30" as="geometry" />
        </mxCell>
        <mxCell id="LgKx24s-j5DssiRB8k6_-20" value="brandId" style="text;strokeColor=none;fillColor=none;spacingLeft=4;spacingRight=4;overflow=hidden;rotatable=0;points=[[0,0.5],[1,0.5]];portConstraint=eastwest;fontSize=12;whiteSpace=wrap;html=1;" vertex="1" parent="LgKx24s-j5DssiRB8k6_-13">
          <mxGeometry y="206" width="160" height="30" as="geometry" />
        </mxCell>
        <mxCell id="LgKx24s-j5DssiRB8k6_-21" value="type" style="swimlane;fontStyle=0;childLayout=stackLayout;horizontal=1;startSize=26;horizontalStack=0;resizeParent=1;resizeParentMax=0;resizeLast=0;collapsible=1;marginBottom=0;align=center;fontSize=14;" vertex="1" parent="1">
          <mxGeometry x="440" y="470" width="160" height="86" as="geometry" />
        </mxCell>
        <mxCell id="LgKx24s-j5DssiRB8k6_-22" value="id" style="text;strokeColor=none;fillColor=none;spacingLeft=4;spacingRight=4;overflow=hidden;rotatable=0;points=[[0,0.5],[1,0.5]];portConstraint=eastwest;fontSize=12;whiteSpace=wrap;html=1;" vertex="1" parent="LgKx24s-j5DssiRB8k6_-21">
          <mxGeometry y="26" width="160" height="30" as="geometry" />
        </mxCell>
        <mxCell id="LgKx24s-j5DssiRB8k6_-23" value="name" style="text;strokeColor=none;fillColor=none;spacingLeft=4;spacingRight=4;overflow=hidden;rotatable=0;points=[[0,0.5],[1,0.5]];portConstraint=eastwest;fontSize=12;whiteSpace=wrap;html=1;" vertex="1" parent="LgKx24s-j5DssiRB8k6_-21">
          <mxGeometry y="56" width="160" height="30" as="geometry" />
        </mxCell>
        <mxCell id="LgKx24s-j5DssiRB8k6_-26" value="brand" style="swimlane;fontStyle=0;childLayout=stackLayout;horizontal=1;startSize=26;horizontalStack=0;resizeParent=1;resizeParentMax=0;resizeLast=0;collapsible=1;marginBottom=0;align=center;fontSize=14;" vertex="1" parent="1">
          <mxGeometry x="220" y="670" width="160" height="86" as="geometry" />
        </mxCell>
        <mxCell id="LgKx24s-j5DssiRB8k6_-27" value="id" style="text;strokeColor=none;fillColor=none;spacingLeft=4;spacingRight=4;overflow=hidden;rotatable=0;points=[[0,0.5],[1,0.5]];portConstraint=eastwest;fontSize=12;whiteSpace=wrap;html=1;" vertex="1" parent="LgKx24s-j5DssiRB8k6_-26">
          <mxGeometry y="26" width="160" height="30" as="geometry" />
        </mxCell>
        <mxCell id="LgKx24s-j5DssiRB8k6_-28" value="name" style="text;strokeColor=none;fillColor=none;spacingLeft=4;spacingRight=4;overflow=hidden;rotatable=0;points=[[0,0.5],[1,0.5]];portConstraint=eastwest;fontSize=12;whiteSpace=wrap;html=1;" vertex="1" parent="LgKx24s-j5DssiRB8k6_-26">
          <mxGeometry y="56" width="160" height="30" as="geometry" />
        </mxCell>
        <mxCell id="LgKx24s-j5DssiRB8k6_-30" value="" style="edgeStyle=entityRelationEdgeStyle;fontSize=12;html=1;endArrow=ERoneToMany;rounded=0;exitX=1;exitY=0.5;exitDx=0;exitDy=0;entryX=0;entryY=0.5;entryDx=0;entryDy=0;" edge="1" parent="1" source="LgKx24s-j5DssiRB8k6_-22" target="LgKx24s-j5DssiRB8k6_-19">
          <mxGeometry width="100" height="100" relative="1" as="geometry">
            <mxPoint x="310" y="520" as="sourcePoint" />
            <mxPoint x="410" y="420" as="targetPoint" />
            <Array as="points">
              <mxPoint x="220" y="460" />
              <mxPoint x="380" y="440" />
            </Array>
          </mxGeometry>
        </mxCell>
        <mxCell id="LgKx24s-j5DssiRB8k6_-31" value="" style="edgeStyle=entityRelationEdgeStyle;fontSize=12;html=1;endArrow=ERoneToMany;rounded=0;exitX=1;exitY=0.5;exitDx=0;exitDy=0;entryX=0;entryY=0.5;entryDx=0;entryDy=0;" edge="1" parent="1" source="LgKx24s-j5DssiRB8k6_-28" target="LgKx24s-j5DssiRB8k6_-20">
          <mxGeometry width="100" height="100" relative="1" as="geometry">
            <mxPoint x="430" y="610" as="sourcePoint" />
            <mxPoint x="530" y="510" as="targetPoint" />
            <Array as="points">
              <mxPoint x="530" y="500" />
            </Array>
          </mxGeometry>
        </mxCell>
        <mxCell id="LgKx24s-j5DssiRB8k6_-32" value="" style="edgeStyle=entityRelationEdgeStyle;fontSize=12;html=1;endArrow=ERmany;startArrow=ERmany;rounded=0;entryX=0;entryY=0.5;entryDx=0;entryDy=0;exitX=1;exitY=0.5;exitDx=0;exitDy=0;" edge="1" parent="1" source="LgKx24s-j5DssiRB8k6_-27" target="LgKx24s-j5DssiRB8k6_-22">
          <mxGeometry width="100" height="100" relative="1" as="geometry">
            <mxPoint x="110" y="690" as="sourcePoint" />
            <mxPoint x="210" y="590" as="targetPoint" />
          </mxGeometry>
        </mxCell>
        <mxCell id="LgKx24s-j5DssiRB8k6_-34" value="device_info" style="swimlane;fontStyle=0;childLayout=stackLayout;horizontal=1;startSize=26;horizontalStack=0;resizeParent=1;resizeParentMax=0;resizeLast=0;collapsible=1;marginBottom=0;align=center;fontSize=14;" vertex="1" parent="1">
          <mxGeometry x="1040" y="180" width="160" height="146" as="geometry" />
        </mxCell>
        <mxCell id="LgKx24s-j5DssiRB8k6_-35" value="id" style="text;strokeColor=none;fillColor=none;spacingLeft=4;spacingRight=4;overflow=hidden;rotatable=0;points=[[0,0.5],[1,0.5]];portConstraint=eastwest;fontSize=12;whiteSpace=wrap;html=1;" vertex="1" parent="LgKx24s-j5DssiRB8k6_-34">
          <mxGeometry y="26" width="160" height="30" as="geometry" />
        </mxCell>
        <mxCell id="LgKx24s-j5DssiRB8k6_-36" value="device_id" style="text;strokeColor=none;fillColor=none;spacingLeft=4;spacingRight=4;overflow=hidden;rotatable=0;points=[[0,0.5],[1,0.5]];portConstraint=eastwest;fontSize=12;whiteSpace=wrap;html=1;" vertex="1" parent="LgKx24s-j5DssiRB8k6_-34">
          <mxGeometry y="56" width="160" height="30" as="geometry" />
        </mxCell>
        <mxCell id="LgKx24s-j5DssiRB8k6_-37" value="title" style="text;strokeColor=none;fillColor=none;spacingLeft=4;spacingRight=4;overflow=hidden;rotatable=0;points=[[0,0.5],[1,0.5]];portConstraint=eastwest;fontSize=12;whiteSpace=wrap;html=1;" vertex="1" parent="LgKx24s-j5DssiRB8k6_-34">
          <mxGeometry y="86" width="160" height="30" as="geometry" />
        </mxCell>
        <mxCell id="LgKx24s-j5DssiRB8k6_-38" value="description" style="text;strokeColor=none;fillColor=none;spacingLeft=4;spacingRight=4;overflow=hidden;rotatable=0;points=[[0,0.5],[1,0.5]];portConstraint=eastwest;fontSize=12;whiteSpace=wrap;html=1;" vertex="1" parent="LgKx24s-j5DssiRB8k6_-34">
          <mxGeometry y="116" width="160" height="30" as="geometry" />
        </mxCell>
        <mxCell id="LgKx24s-j5DssiRB8k6_-39" value="" style="edgeStyle=entityRelationEdgeStyle;fontSize=12;html=1;endArrow=ERoneToMany;rounded=0;exitX=1;exitY=0.5;exitDx=0;exitDy=0;entryX=0;entryY=0.5;entryDx=0;entryDy=0;" edge="1" parent="1" source="LgKx24s-j5DssiRB8k6_-14" target="LgKx24s-j5DssiRB8k6_-36">
          <mxGeometry width="100" height="100" relative="1" as="geometry">
            <mxPoint x="850" y="300" as="sourcePoint" />
            <mxPoint x="950" y="290" as="targetPoint" />
            <Array as="points">
              <mxPoint x="460" y="349" />
              <mxPoint x="620" y="329" />
            </Array>
          </mxGeometry>
        </mxCell>
        <mxCell id="LgKx24s-j5DssiRB8k6_-40" value="basket_device" style="swimlane;fontStyle=0;childLayout=stackLayout;horizontal=1;startSize=26;horizontalStack=0;resizeParent=1;resizeParentMax=0;resizeLast=0;collapsible=1;marginBottom=0;align=center;fontSize=14;" vertex="1" parent="1">
          <mxGeometry x="500" y="180" width="160" height="116" as="geometry" />
        </mxCell>
        <mxCell id="LgKx24s-j5DssiRB8k6_-41" value="id" style="text;strokeColor=none;fillColor=none;spacingLeft=4;spacingRight=4;overflow=hidden;rotatable=0;points=[[0,0.5],[1,0.5]];portConstraint=eastwest;fontSize=12;whiteSpace=wrap;html=1;" vertex="1" parent="LgKx24s-j5DssiRB8k6_-40">
          <mxGeometry y="26" width="160" height="30" as="geometry" />
        </mxCell>
        <mxCell id="LgKx24s-j5DssiRB8k6_-42" value="device_id" style="text;strokeColor=none;fillColor=none;spacingLeft=4;spacingRight=4;overflow=hidden;rotatable=0;points=[[0,0.5],[1,0.5]];portConstraint=eastwest;fontSize=12;whiteSpace=wrap;html=1;" vertex="1" parent="LgKx24s-j5DssiRB8k6_-40">
          <mxGeometry y="56" width="160" height="30" as="geometry" />
        </mxCell>
        <mxCell id="LgKx24s-j5DssiRB8k6_-43" value="basket_id" style="text;strokeColor=none;fillColor=none;spacingLeft=4;spacingRight=4;overflow=hidden;rotatable=0;points=[[0,0.5],[1,0.5]];portConstraint=eastwest;fontSize=12;whiteSpace=wrap;html=1;" vertex="1" parent="LgKx24s-j5DssiRB8k6_-40">
          <mxGeometry y="86" width="160" height="30" as="geometry" />
        </mxCell>
        <mxCell id="LgKx24s-j5DssiRB8k6_-44" value="" style="edgeStyle=entityRelationEdgeStyle;fontSize=12;html=1;endArrow=ERoneToMany;rounded=0;exitX=1;exitY=0.5;exitDx=0;exitDy=0;entryX=0;entryY=0.5;entryDx=0;entryDy=0;" edge="1" parent="1" source="LgKx24s-j5DssiRB8k6_-8" target="LgKx24s-j5DssiRB8k6_-41">
          <mxGeometry width="100" height="100" relative="1" as="geometry">
            <mxPoint x="440" y="333" as="sourcePoint" />
            <mxPoint x="540" y="323" as="targetPoint" />
            <Array as="points">
              <mxPoint x="50" y="382" />
              <mxPoint x="210" y="362" />
            </Array>
          </mxGeometry>
        </mxCell>
        <mxCell id="LgKx24s-j5DssiRB8k6_-45" value="" style="edgeStyle=entityRelationEdgeStyle;fontSize=12;html=1;endArrow=ERmandOne;startArrow=ERmandOne;rounded=0;entryX=0;entryY=0.5;entryDx=0;entryDy=0;exitX=1;exitY=0.5;exitDx=0;exitDy=0;" edge="1" parent="1" source="LgKx24s-j5DssiRB8k6_-42" target="LgKx24s-j5DssiRB8k6_-14">
          <mxGeometry width="100" height="100" relative="1" as="geometry">
            <mxPoint x="590" y="316" as="sourcePoint" />
            <mxPoint x="680" y="356" as="targetPoint" />
          </mxGeometry>
        </mxCell>
        <mxCell id="LgKx24s-j5DssiRB8k6_-46" value="rating" style="swimlane;fontStyle=0;childLayout=stackLayout;horizontal=1;startSize=26;horizontalStack=0;resizeParent=1;resizeParentMax=0;resizeLast=0;collapsible=1;marginBottom=0;align=center;fontSize=14;" vertex="1" parent="1">
          <mxGeometry x="-20" y="470" width="160" height="146" as="geometry" />
        </mxCell>
        <mxCell id="LgKx24s-j5DssiRB8k6_-47" value="id" style="text;strokeColor=none;fillColor=none;spacingLeft=4;spacingRight=4;overflow=hidden;rotatable=0;points=[[0,0.5],[1,0.5]];portConstraint=eastwest;fontSize=12;whiteSpace=wrap;html=1;" vertex="1" parent="LgKx24s-j5DssiRB8k6_-46">
          <mxGeometry y="26" width="160" height="30" as="geometry" />
        </mxCell>
        <mxCell id="LgKx24s-j5DssiRB8k6_-48" value="user_id" style="text;strokeColor=none;fillColor=none;spacingLeft=4;spacingRight=4;overflow=hidden;rotatable=0;points=[[0,0.5],[1,0.5]];portConstraint=eastwest;fontSize=12;whiteSpace=wrap;html=1;" vertex="1" parent="LgKx24s-j5DssiRB8k6_-46">
          <mxGeometry y="56" width="160" height="30" as="geometry" />
        </mxCell>
        <mxCell id="LgKx24s-j5DssiRB8k6_-49" value="device_id" style="text;strokeColor=none;fillColor=none;spacingLeft=4;spacingRight=4;overflow=hidden;rotatable=0;points=[[0,0.5],[1,0.5]];portConstraint=eastwest;fontSize=12;whiteSpace=wrap;html=1;" vertex="1" parent="LgKx24s-j5DssiRB8k6_-46">
          <mxGeometry y="86" width="160" height="30" as="geometry" />
        </mxCell>
        <mxCell id="LgKx24s-j5DssiRB8k6_-50" value="rate" style="text;strokeColor=none;fillColor=none;spacingLeft=4;spacingRight=4;overflow=hidden;rotatable=0;points=[[0,0.5],[1,0.5]];portConstraint=eastwest;fontSize=12;whiteSpace=wrap;html=1;" vertex="1" parent="LgKx24s-j5DssiRB8k6_-46">
          <mxGeometry y="116" width="160" height="30" as="geometry" />
        </mxCell>
        <mxCell id="LgKx24s-j5DssiRB8k6_-51" value="" style="edgeStyle=entityRelationEdgeStyle;fontSize=12;html=1;endArrow=ERoneToMany;rounded=0;exitX=0;exitY=0.5;exitDx=0;exitDy=0;entryX=1;entryY=0.5;entryDx=0;entryDy=0;" edge="1" parent="1" source="LgKx24s-j5DssiRB8k6_-17" target="LgKx24s-j5DssiRB8k6_-47">
          <mxGeometry width="100" height="100" relative="1" as="geometry">
            <mxPoint x="291" y="460" as="sourcePoint" />
            <mxPoint x="377" y="420" as="targetPoint" />
            <Array as="points">
              <mxPoint x="-73" y="581" />
              <mxPoint x="87" y="561" />
            </Array>
          </mxGeometry>
        </mxCell>
        <mxCell id="LgKx24s-j5DssiRB8k6_-52" value="" style="edgeStyle=entityRelationEdgeStyle;fontSize=12;html=1;endArrow=ERoneToMany;rounded=0;exitX=0.581;exitY=1;exitDx=0;exitDy=0;entryX=0.75;entryY=0;entryDx=0;entryDy=0;exitPerimeter=0;" edge="1" parent="1" source="LgKx24s-j5DssiRB8k6_-6" target="LgKx24s-j5DssiRB8k6_-46">
          <mxGeometry width="100" height="100" relative="1" as="geometry">
            <mxPoint x="80" y="420" as="sourcePoint" />
            <mxPoint x="166" y="380" as="targetPoint" />
            <Array as="points">
              <mxPoint x="-284" y="541" />
              <mxPoint x="-124" y="521" />
            </Array>
          </mxGeometry>
        </mxCell>
      </root>
    </mxGraphModel>
  </diagram>
</mxfile>
